HIERARCHY
ROOT hip
{
  OFFSET 0 0 0
  CHANNELS 6 Xposition Yposition Zposition Zrotation Yrotation Xrotation
  JOINT abdomen
  {
    OFFSET 0 20.6881 -0.73152
    CHANNELS 3 Zrotation Xrotation Yrotation
    JOINT chest
    {
      OFFSET 0 11.7043 -0.48768
      CHANNELS 3 Zrotation Xrotation Yrotation
      JOINT neck
      {
        OFFSET 0 22.1894 -2.19456
        CHANNELS 3 Zrotation Xrotation Yrotation
        JOINT head
        {
          OFFSET -0.24384 7.07133 1.2192
          CHANNELS 3 Zrotation Xrotation Yrotation
          JOINT leftEye
          {
            OFFSET 4.14528 8.04674 8.04672
            CHANNELS 3 Zrotation Xrotation Yrotation
            End Site
            {
              OFFSET 1 0 0
            }
          }
          JOINT rightEye
          {
            OFFSET -3.6576 8.04674 8.04672
            CHANNELS 3 Zrotation Xrotation Yrotation
            End Site
            {
              OFFSET 1 0 0
            }
          }
        }
      }
      JOINT rCollar
      {
        OFFSET -2.68224 19.2634 -4.8768
        CHANNELS 3 Zrotation Xrotation Yrotation
        JOINT rShldr
        {
          OFFSET -8.77824 -1.95073 1.46304
          CHANNELS 3 Zrotation Xrotation Yrotation
          JOINT rForeArm
          {
            OFFSET -28.1742 -1.7115 0.48768
            CHANNELS 3 Zrotation Xrotation Yrotation
            JOINT rHand
            {
              OFFSET -22.5879 0.773209 7.07136
              CHANNELS 3 Zrotation Xrotation Yrotation
              JOINT rThumb1
              {
                OFFSET -1.2192 -0.487915 3.41376
                CHANNELS 3 Zrotation Xrotation Yrotation
                JOINT rThumb2
                {
                  OFFSET -3.37035 -0.52449 3.41376
                  CHANNELS 3 Zrotation Xrotation Yrotation
                  End Site
                  {
                    OFFSET -1.78271 -1.18214 1.43049
                  }
                }
              }
              JOINT rIndex1
              {
                OFFSET -7.75947 0.938293 5.60832
                CHANNELS 3 Zrotation Xrotation Yrotation
                JOINT rIndex2
                {
                  OFFSET -2.54057 -0.884171 1.56538
                  CHANNELS 3 Zrotation Xrotation Yrotation
                  End Site
                  {
                    OFFSET -1.62519 -0.234802 1.16502
                  }
                }
              }
              JOINT rMid1
              {
                OFFSET -8.24714 1.18213 3.41376
                CHANNELS 3 Zrotation Xrotation Yrotation
                JOINT rMid2
                {
                  OFFSET -3.10165 -0.590103 1.0647
                  CHANNELS 3 Zrotation Xrotation Yrotation
                  End Site
                  {
                    OFFSET -2.48547 -0.328903 0.83742
                  }
                }
              }
              JOINT rRing1
              {
                OFFSET -8.82822 0.546677 1.51678
                CHANNELS 3 Zrotation Xrotation Yrotation
                JOINT rRing2
                {
                  OFFSET -2.60934 -0.819778 -0.0198488
                  CHANNELS 3 Zrotation Xrotation Yrotation
                  End Site
                  {
                    OFFSET -2.33842 -0.294052 0.168128
                  }
                }
              }
              JOINT rPinky1
              {
                OFFSET -8.27202 -0.0477905 -0.4584
                CHANNELS 3 Zrotation Xrotation Yrotation
                JOINT rPinky2
                {
                  OFFSET -1.82734 -0.647385 -0.700984
                  CHANNELS 3 Zrotation Xrotation Yrotation
                  End Site
                  {
                    OFFSET -1.69225 -0.51767 -0.607171
                  }
                }
              }
            }
          }
        }
      }
      JOINT lCollar
      {
        OFFSET 2.68224 19.2634 -4.8768
        CHANNELS 3 Zrotation Xrotation Yrotation
        JOINT lShldr
        {
          OFFSET 8.77824 -1.95073 1.46304
          CHANNELS 3 Zrotation Xrotation Yrotation
          JOINT lForeArm
          {
            OFFSET 28.1742 -1.7115 0.48768
            CHANNELS 3 Zrotation Xrotation Yrotation
            JOINT lHand
            {
              OFFSET 22.5879 0.773209 7.07136
              CHANNELS 3 Zrotation Xrotation Yrotation
              JOINT lThumb1
              {
                OFFSET 1.2192 -0.487915 3.41376
                CHANNELS 3 Zrotation Xrotation Yrotation
                JOINT lThumb2
                {
                  OFFSET 3.37035 -0.52449 3.41376
                  CHANNELS 3 Zrotation Xrotation Yrotation
                  End Site
                  {
                    OFFSET 1.78271 -1.18214 1.43049
                  }
                }
              }
              JOINT lIndex1
              {
                OFFSET 7.75947 0.938293 5.60832
                CHANNELS 3 Zrotation Xrotation Yrotation
                JOINT lIndex2
                {
                  OFFSET 2.54057 -0.884171 1.56538
                  CHANNELS 3 Zrotation Xrotation Yrotation
                  End Site
                  {
                    OFFSET 1.62519 -0.234802 1.16502
                  }
                }
              }
              JOINT lMid1
              {
                OFFSET 8.24714 1.18213 3.41376
                CHANNELS 3 Zrotation Xrotation Yrotation
                JOINT lMid2
                {
                  OFFSET 3.10165 -0.590103 1.0647
                  CHANNELS 3 Zrotation Xrotation Yrotation
                  End Site
                  {
                    OFFSET 2.48547 -0.328903 0.83742
                  }
                }
              }
              JOINT lRing1
              {
                OFFSET 8.82822 0.546677 1.51678
                CHANNELS 3 Zrotation Xrotation Yrotation
                JOINT lRing2
                {
                  OFFSET 2.60934 -0.819778 -0.0198488
                  CHANNELS 3 Zrotation Xrotation Yrotation
                  End Site
                  {
                    OFFSET 2.33842 -0.294052 0.168128
                  }
                }
              }
              JOINT lPinky1
              {
                OFFSET 8.27202 -0.0477905 -0.4584
                CHANNELS 3 Zrotation Xrotation Yrotation
                JOINT lPinky2
                {
                  OFFSET 1.82734 -0.647385 -0.700984
                  CHANNELS 3 Zrotation Xrotation Yrotation
                  End Site
                  {
                    OFFSET 1.69225 -0.51767 -0.607171
                  }
                }
              }
            }
          }
        }
      }
    }
  }
  JOINT rButtock
  {
    OFFSET -8.77824 4.35084 1.2192
    CHANNELS 3 Zrotation Xrotation Yrotation
    JOINT rThigh
    {
      OFFSET 0 -1.70687 -2.19456
      CHANNELS 3 Zrotation Xrotation Yrotation
      JOINT rShin
      {
        OFFSET 0 -36.8199 0.73152
        CHANNELS 3 Zrotation Xrotation Yrotation
        JOINT rFoot
        {
          OFFSET 0.73152 -45.1104 -5.12064
          CHANNELS 3 Zrotation Xrotation Yrotation
          End Site
          {
            OFFSET -1.1221 -3.69964 12.103
          }
        }
      }
    }
  }
  JOINT lButtock
  {
    OFFSET 8.77824 4.35084 1.2192
    CHANNELS 3 Zrotation Xrotation Yrotation
    JOINT lThigh
    {
      OFFSET 0 -1.70687 -2.19456
      CHANNELS 3 Zrotation Xrotation Yrotation
      JOINT lShin
      {
        OFFSET 0 -36.8199 0.73152
        CHANNELS 3 Zrotation Xrotation Yrotation
        JOINT lFoot
        {
          OFFSET -0.73152 -45.1104 -5.12064
          CHANNELS 3 Zrotation Xrotation Yrotation
          End Site
          {
            OFFSET 1.1221 -3.69964 12.103
          }
        }
      }
    }
  }
}
MOTION
Frames:	5
Frame Time:	0.00833333
34.6777 85.0342 45.6946 -181.342 0.0699 -174.801 -2.28392 -0.763015 1.35837 0.64477 0.813698 0.40859 -3.93788 2.70215 -3.5023 3.52794 -11.2429 -5.93002 -0.0 0.0 0.0 -0.0 0.0 0.0 -7.63488e-14 2.05941e-13 -2.68359e-15 60.8376 46.1675 13.7645 -24.7556 -48.3594 100.797 -0.0844039 8.25935 1.16897 -1.03486e-09 -2.6682e-09 9.64258e-10 -1.78153e-09 -4.59031e-09 1.67472e-09 -1.03485e-09 -2.6682e-09 9.64242e-10 7.73091 5.47488 0.417314 -1.03486e-09 -2.6682e-09 9.64261e-10 2.90554 0.965183 0.102902 -1.03485e-09 -2.6682e-09 9.64266e-10 10.2786 0.731801 0.0259123 -1.03486e-09 -2.6682e-09 9.64277e-10 2.22167 -0.733487 -0.20892 -7.63229e-14 2.05941e-13 -2.88238e-15 -51.8874 50.8096 -22.2977 23.8259 -49.6177 -103.831 0.130981 10.2641 -1.45832 8.63751e-10 -2.03095e-09 -6.84863e-10 1.48658e-09 -3.49425e-09 -1.19132e-09 8.63744e-10 -2.03094e-09 -6.84843e-10 -7.73091 5.47488 -0.417314 8.63749e-10 -2.03095e-09 -6.84863e-10 -2.90554 0.965183 -0.102902 8.63746e-10 -2.03095e-09 -6.84866e-10 -10.2786 0.731801 -0.0259123 8.6375e-10 -2.03095e-09 -6.84872e-10 -2.22167 -0.733487 0.20892 -2.03217e-16 0.0 -3.88251e-19 -4.33965 -6.89544 11.8212 -0.0183989 10.3575 0.122424 -2.19576 -1.90635 -21.5139 2.03217e-16 0.0 3.88251e-19 1.78075 -0.634112 -5.83108 -0.0158595 0.40675 0.00375605 1.93235 -4.32848 12.2251
34.6947 85.0188 45.7001 -181.309 0.1267 -174.776 -2.2896 -0.708122 1.29687 0.684228 0.751726 0.387956 -3.86358 2.65014 -3.47609 3.30785 -10.9595 -5.93671 -0.0 0.0 0.0 -0.0 0.0 0.0 -6.26405e-14 2.01102e-13 -2.09462e-15 59.9793 44.233 13.3868 -24.4767 -48.7563 101.739 -0.107513 9.27244 1.3148 -9.58137e-10 -2.50829e-09 8.52999e-10 -1.64938e-09 -4.3152e-09 1.48117e-09 -9.5813e-10 -2.50828e-09 8.52985e-10 7.73091 5.47488 0.417314 -9.58139e-10 -2.50829e-09 8.53001e-10 2.90554 0.965183 0.102902 -9.58136e-10 -2.50829e-09 8.53007e-10 10.2786 0.731801 0.0259123 -9.58145e-10 -2.50828e-09 8.53019e-10 2.22167 -0.733487 -0.20892 -6.26104e-14 2.01102e-13 -2.29107e-15 -51.4465 48.6404 -21.6017 23.5221 -49.9869 -104.763 0.180357 11.8305 -1.68746 7.8789e-10 -1.8399e-09 -5.5581e-10 1.35592e-09 -3.16545e-09 -9.66688e-10 7.87882e-10 -1.8399e-09 -5.55795e-10 -7.73091 5.47488 -0.417314 7.87889e-10 -1.8399e-09 -5.5581e-10 -2.90554 0.965183 -0.102902 7.87886e-10 -1.8399e-09 -5.55813e-10 -10.2786 0.731801 -0.0259123 7.87889e-10 -1.83991e-09 -5.5582e-10 -2.22167 -0.733487 0.20892 -2.03217e-16 0.0 -3.88251e-19 -4.34019 -6.85721 11.8066 -0.0187251 10.3774 0.123835 -2.23198 -1.97681 -21.537 2.03217e-16 0.0 3.88251e-19 1.78189 -0.553972 -5.86479 -0.0159488 0.29756 0.00656306 1.9124 -4.20011 12.2973
34.7112 85.0277 45.7024 -181.284 0.1857 -174.766 -2.2967 -0.68179 1.20057 0.73581 0.691363 0.355694 -3.80469 2.5703 -3.44912 3.09891 -10.6123 -5.9395 -0.0 0.0 0.0 -0.0 0.0 0.0 -3.96666e-14 1.6027e-13 -2.41337e-15 58.9761 42.2455 13.0412 -24.1956 -49.1411 102.66 -0.129678 10.2044 1.44956 -7.06813e-10 -1.82901e-09 5.32099e-10 -1.21674e-09 -3.14624e-09 9.24066e-10 -7.06807e-10 -1.82901e-09 5.32085e-10 7.73091 5.47488 0.417314 -7.06816e-10 -1.82901e-09 5.32097e-10 2.90554 0.965183 0.102902 -7.06815e-10 -1.82901e-09 5.32103e-10 10.2786 0.731801 0.0259123 -7.06821e-10 -1.82901e-09 5.32116e-10 2.22167 -0.733487 -0.20892 -3.96387e-14 1.60271e-13 -2.60594e-15 -50.9888 46.2878 -20.9604 23.2209 -50.342 -105.663 0.219045 13.0863 -1.87243 5.23208e-10 -1.25295e-09 -3.02413e-10 8.99981e-10 -2.15513e-09 -5.25807e-10 5.23199e-10 -1.25295e-09 -3.02404e-10 -7.73091 5.47488 -0.417314 5.23209e-10 -1.25295e-09 -3.02415e-10 -2.90554 0.965183 -0.102902 5.23207e-10 -1.25295e-09 -3.02417e-10 -10.2786 0.731801 -0.0259123 5.23208e-10 -1.25295e-09 -3.02424e-10 -2.22167 -0.733487 0.20892 -2.03217e-16 0.0 -3.88251e-19 -4.35845 -6.84028 11.788 -0.0194411 10.4143 0.126473 -2.29832 -2.10419 -21.5671 2.03217e-16 0.0 3.88251e-19 1.77705 -0.409781 -5.90129 -0.0155421 0.0443688 0.0124049 1.87634 -3.99331 12.4085
34.7125 85.053 45.6895 -181.285 0.0869 -174.814 -2.31673 -0.677284 1.10259 0.794556 0.639457 0.323258 -3.76969 2.50326 -3.42666 2.93964 -10.2778 -5.94178 -0.0 0.0 0.0 -0.0 0.0 0.0 -1.59369e-14 1.09872e-13 -2.22119e-15 57.8764 40.2151 12.7483 -23.9134 -49.5095 103.558 -0.14852 10.9332 1.55555 -3.95478e-10 -1.01252e-09 1.49228e-10 -6.80644e-10 -1.74144e-09 2.59369e-10 -3.95473e-10 -1.01252e-09 1.49214e-10 7.73091 5.47488 0.417314 -3.95482e-10 -1.01252e-09 1.49223e-10 2.90554 0.965183 0.102902 -3.95481e-10 -1.01252e-09 1.49229e-10 10.2786 0.731801 0.0259123 -3.95487e-10 -1.01252e-09 1.49243e-10 2.22167 -0.733487 -0.20892 -1.59132e-14 1.09873e-13 -2.41298e-15 -50.4575 43.8693 -20.3861 22.9333 -50.6658 -106.502 0.250627 14.0959 -2.02227 1.9537e-10 -5.6253e-10 -2.50931e-11 3.35054e-10 -9.66984e-10 -4.30551e-11 1.95361e-10 -5.62524e-10 -2.50893e-11 -7.73091 5.47488 -0.417314 1.95374e-10 -5.62525e-10 -2.50952e-11 -2.90554 0.965183 -0.102902 1.95372e-10 -5.62525e-10 -2.50974e-11 -10.2786 0.731801 -0.0259123 1.95372e-10 -5.62523e-10 -2.51049e-11 -2.22167 -0.733487 0.20892 -2.03217e-16 0.0 -3.88251e-19 -4.38795 -6.83535 11.7796 -0.0201019 10.4563 0.129303 -2.36865 -2.2383 -21.6015 2.03217e-16 0.0 3.88251e-19 1.7638 -0.25343 -5.92702 -0.0149746 -0.236216 0.0186433 1.8401 -3.794 12.5174
34.6979 85.053 45.6732 -181.342 -0.0149 -174.858 -2.36118 -0.68787 1.03608 0.855563 0.602854 0.302098 -3.76713 2.48968 -3.41393 2.86865 -10.0329 -5.94671 -0.0 0.0 0.0 -0.0 0.0 0.0 3.88805e-17 7.63331e-14 -9.93923e-17 56.7329 38.1523 12.526 -23.6314 -49.8573 104.43 -0.160271 11.3368 1.61462 -1.38725e-10 -4.40955e-10 -1.4794e-10 -2.38161e-10 -7.58788e-10 -2.56947e-10 -1.3872e-10 -4.40954e-10 -1.47953e-10 7.73091 5.47488 0.417314 -1.38729e-10 -4.40952e-10 -1.47947e-10 2.90554 0.965183 0.102902 -1.38729e-10 -4.40953e-10 -1.47941e-10 10.2786 0.731801 0.0259123 -1.38733e-10 -4.40953e-10 -1.47928e-10 2.22167 -0.733487 -0.20892 6.05103e-17 7.63341e-14 -2.98177e-16 -49.8052 41.5021 -19.8779 22.6728 -50.9422 -107.246 0.28117 14.9232 -2.14657 -6.99563e-11 -6.10778e-11 1.75732e-10 -1.22562e-10 -1.04701e-10 3.07188e-10 -6.99662e-11 -6.10718e-11 1.75732e-10 -7.73091 5.47488 -0.417314 -6.99522e-11 -6.10721e-11 1.75729e-10 -2.90554 0.965183 -0.102902 -6.9954e-11 -6.10714e-11 1.75727e-10 -10.2786 0.731801 -0.0259123 -6.99533e-11 -6.1069e-11 1.75719e-10 -2.22167 -0.733487 0.20892 -2.03217e-16 0.0 -3.88251e-19 -4.4222 -6.83311 11.7952 -0.0202577 10.4913 0.131286 -2.41677 -2.329 -21.6373 2.03217e-16 0.0 3.88251e-19 1.73949 -0.136784 -5.9284 -0.014668 -0.427585 0.0226397 1.82068 -3.68788 12.5824
